<mxfile host="Electron" agent="Mozilla/5.0 (Windows NT 10.0; Win64; x64) AppleWebKit/537.36 (KHTML, like Gecko) draw.io/24.7.17 Chrome/128.0.6613.36 Electron/32.0.1 Safari/537.36" version="24.7.17">
  <diagram name="Граница Парето" id="seql1WVjoxnm4ltzGnAI">
    <mxGraphModel dx="955" dy="652" grid="1" gridSize="10" guides="1" tooltips="1" connect="1" arrows="1" fold="1" page="1" pageScale="1" pageWidth="850" pageHeight="1100" math="0" shadow="0">
      <root>
        <mxCell id="0" />
        <mxCell id="1" parent="0" />
        <mxCell id="KWG5rS-E0V6-jDx0Ycgz-3" value="" style="endArrow=classic;html=1;rounded=0;" edge="1" parent="1">
          <mxGeometry width="50" height="50" relative="1" as="geometry">
            <mxPoint x="80" y="560" as="sourcePoint" />
            <mxPoint x="80" y="80" as="targetPoint" />
          </mxGeometry>
        </mxCell>
        <mxCell id="KWG5rS-E0V6-jDx0Ycgz-6" value="" style="endArrow=classic;html=1;rounded=0;" edge="1" parent="1">
          <mxGeometry width="50" height="50" relative="1" as="geometry">
            <mxPoint x="80" y="560" as="sourcePoint" />
            <mxPoint x="600" y="560" as="targetPoint" />
          </mxGeometry>
        </mxCell>
        <mxCell id="KWG5rS-E0V6-jDx0Ycgz-7" value="&lt;font style=&quot;font-size: 20px;&quot;&gt;f1&lt;/font&gt;" style="text;html=1;align=center;verticalAlign=middle;resizable=0;points=[];autosize=1;strokeColor=none;fillColor=none;" vertex="1" parent="1">
          <mxGeometry x="610" y="540" width="40" height="40" as="geometry" />
        </mxCell>
        <mxCell id="KWG5rS-E0V6-jDx0Ycgz-8" value="&lt;font style=&quot;font-size: 20px;&quot;&gt;f2&lt;/font&gt;" style="text;html=1;align=center;verticalAlign=middle;resizable=0;points=[];autosize=1;strokeColor=none;fillColor=none;" vertex="1" parent="1">
          <mxGeometry x="60" y="30" width="40" height="40" as="geometry" />
        </mxCell>
        <mxCell id="KWG5rS-E0V6-jDx0Ycgz-9" value="" style="shape=waypoint;sketch=0;size=6;pointerEvents=1;points=[];fillColor=none;resizable=0;rotatable=0;perimeter=centerPerimeter;snapToPoint=1;strokeWidth=0.25;" vertex="1" parent="1">
          <mxGeometry x="189.71" y="470" width="20" height="20" as="geometry" />
        </mxCell>
        <mxCell id="KWG5rS-E0V6-jDx0Ycgz-10" value="" style="endArrow=none;html=1;rounded=0;" edge="1" parent="1">
          <mxGeometry width="50" height="50" relative="1" as="geometry">
            <mxPoint x="120" y="570" as="sourcePoint" />
            <mxPoint x="120" y="550" as="targetPoint" />
          </mxGeometry>
        </mxCell>
        <mxCell id="KWG5rS-E0V6-jDx0Ycgz-11" value="1" style="text;html=1;align=center;verticalAlign=middle;resizable=0;points=[];autosize=1;strokeColor=none;fillColor=none;fontSize=17;" vertex="1" parent="1">
          <mxGeometry x="104" y="571" width="30" height="30" as="geometry" />
        </mxCell>
        <mxCell id="KWG5rS-E0V6-jDx0Ycgz-12" value="" style="endArrow=none;html=1;rounded=0;" edge="1" parent="1">
          <mxGeometry width="50" height="50" relative="1" as="geometry">
            <mxPoint x="161" y="570" as="sourcePoint" />
            <mxPoint x="161" y="550" as="targetPoint" />
          </mxGeometry>
        </mxCell>
        <mxCell id="KWG5rS-E0V6-jDx0Ycgz-13" value="2" style="text;html=1;align=center;verticalAlign=middle;resizable=0;points=[];autosize=1;strokeColor=none;fillColor=none;fontSize=17;" vertex="1" parent="1">
          <mxGeometry x="145" y="571" width="30" height="30" as="geometry" />
        </mxCell>
        <mxCell id="KWG5rS-E0V6-jDx0Ycgz-14" value="" style="endArrow=none;html=1;rounded=0;" edge="1" parent="1">
          <mxGeometry width="50" height="50" relative="1" as="geometry">
            <mxPoint x="199.71" y="570" as="sourcePoint" />
            <mxPoint x="199.71" y="550" as="targetPoint" />
          </mxGeometry>
        </mxCell>
        <mxCell id="KWG5rS-E0V6-jDx0Ycgz-15" value="3" style="text;html=1;align=center;verticalAlign=middle;resizable=0;points=[];autosize=1;strokeColor=none;fillColor=none;fontSize=17;" vertex="1" parent="1">
          <mxGeometry x="183.71" y="571" width="30" height="30" as="geometry" />
        </mxCell>
        <mxCell id="KWG5rS-E0V6-jDx0Ycgz-16" value="" style="endArrow=none;html=1;rounded=0;" edge="1" parent="1">
          <mxGeometry width="50" height="50" relative="1" as="geometry">
            <mxPoint x="240" y="570" as="sourcePoint" />
            <mxPoint x="240" y="550" as="targetPoint" />
          </mxGeometry>
        </mxCell>
        <mxCell id="KWG5rS-E0V6-jDx0Ycgz-17" value="4" style="text;html=1;align=center;verticalAlign=middle;resizable=0;points=[];autosize=1;strokeColor=none;fillColor=none;fontSize=17;" vertex="1" parent="1">
          <mxGeometry x="224" y="571" width="30" height="30" as="geometry" />
        </mxCell>
        <mxCell id="KWG5rS-E0V6-jDx0Ycgz-18" value="" style="endArrow=none;html=1;rounded=0;" edge="1" parent="1">
          <mxGeometry width="50" height="50" relative="1" as="geometry">
            <mxPoint x="280" y="570" as="sourcePoint" />
            <mxPoint x="280" y="550" as="targetPoint" />
          </mxGeometry>
        </mxCell>
        <mxCell id="KWG5rS-E0V6-jDx0Ycgz-19" value="5" style="text;html=1;align=center;verticalAlign=middle;resizable=0;points=[];autosize=1;strokeColor=none;fillColor=none;fontSize=17;" vertex="1" parent="1">
          <mxGeometry x="264" y="571" width="30" height="30" as="geometry" />
        </mxCell>
        <mxCell id="KWG5rS-E0V6-jDx0Ycgz-20" value="" style="endArrow=none;html=1;rounded=0;" edge="1" parent="1">
          <mxGeometry width="50" height="50" relative="1" as="geometry">
            <mxPoint x="320" y="570" as="sourcePoint" />
            <mxPoint x="320" y="550" as="targetPoint" />
          </mxGeometry>
        </mxCell>
        <mxCell id="KWG5rS-E0V6-jDx0Ycgz-21" value="6" style="text;html=1;align=center;verticalAlign=middle;resizable=0;points=[];autosize=1;strokeColor=none;fillColor=none;fontSize=17;" vertex="1" parent="1">
          <mxGeometry x="304" y="571" width="30" height="30" as="geometry" />
        </mxCell>
        <mxCell id="KWG5rS-E0V6-jDx0Ycgz-22" value="" style="endArrow=none;html=1;rounded=0;" edge="1" parent="1">
          <mxGeometry width="50" height="50" relative="1" as="geometry">
            <mxPoint x="360" y="570" as="sourcePoint" />
            <mxPoint x="360" y="550" as="targetPoint" />
          </mxGeometry>
        </mxCell>
        <mxCell id="KWG5rS-E0V6-jDx0Ycgz-23" value="7" style="text;html=1;align=center;verticalAlign=middle;resizable=0;points=[];autosize=1;strokeColor=none;fillColor=none;fontSize=17;" vertex="1" parent="1">
          <mxGeometry x="344" y="571" width="30" height="30" as="geometry" />
        </mxCell>
        <mxCell id="KWG5rS-E0V6-jDx0Ycgz-24" value="" style="endArrow=none;html=1;rounded=0;" edge="1" parent="1">
          <mxGeometry width="50" height="50" relative="1" as="geometry">
            <mxPoint x="400" y="570" as="sourcePoint" />
            <mxPoint x="400" y="550" as="targetPoint" />
          </mxGeometry>
        </mxCell>
        <mxCell id="KWG5rS-E0V6-jDx0Ycgz-25" value="8" style="text;html=1;align=center;verticalAlign=middle;resizable=0;points=[];autosize=1;strokeColor=none;fillColor=none;fontSize=17;" vertex="1" parent="1">
          <mxGeometry x="384" y="571" width="30" height="30" as="geometry" />
        </mxCell>
        <mxCell id="KWG5rS-E0V6-jDx0Ycgz-26" value="" style="endArrow=none;html=1;rounded=0;" edge="1" parent="1">
          <mxGeometry width="50" height="50" relative="1" as="geometry">
            <mxPoint x="69.41" y="520" as="sourcePoint" />
            <mxPoint x="90.6" y="520" as="targetPoint" />
          </mxGeometry>
        </mxCell>
        <mxCell id="KWG5rS-E0V6-jDx0Ycgz-27" value="1" style="text;html=1;align=center;verticalAlign=middle;resizable=0;points=[];autosize=1;strokeColor=none;fillColor=none;fontSize=17;" vertex="1" parent="1">
          <mxGeometry x="40" y="506" width="30" height="30" as="geometry" />
        </mxCell>
        <mxCell id="KWG5rS-E0V6-jDx0Ycgz-28" value="" style="endArrow=none;html=1;rounded=0;" edge="1" parent="1">
          <mxGeometry width="50" height="50" relative="1" as="geometry">
            <mxPoint x="69.41" y="480" as="sourcePoint" />
            <mxPoint x="90.6" y="480" as="targetPoint" />
          </mxGeometry>
        </mxCell>
        <mxCell id="KWG5rS-E0V6-jDx0Ycgz-29" value="2" style="text;html=1;align=center;verticalAlign=middle;resizable=0;points=[];autosize=1;strokeColor=none;fillColor=none;fontSize=17;" vertex="1" parent="1">
          <mxGeometry x="40" y="466" width="30" height="30" as="geometry" />
        </mxCell>
        <mxCell id="KWG5rS-E0V6-jDx0Ycgz-30" value="" style="endArrow=none;html=1;rounded=0;" edge="1" parent="1">
          <mxGeometry width="50" height="50" relative="1" as="geometry">
            <mxPoint x="69.41" y="440" as="sourcePoint" />
            <mxPoint x="90.6" y="440" as="targetPoint" />
          </mxGeometry>
        </mxCell>
        <mxCell id="KWG5rS-E0V6-jDx0Ycgz-31" value="3" style="text;html=1;align=center;verticalAlign=middle;resizable=0;points=[];autosize=1;strokeColor=none;fillColor=none;fontSize=17;" vertex="1" parent="1">
          <mxGeometry x="40" y="426" width="30" height="30" as="geometry" />
        </mxCell>
        <mxCell id="KWG5rS-E0V6-jDx0Ycgz-32" value="" style="endArrow=none;html=1;rounded=0;" edge="1" parent="1">
          <mxGeometry width="50" height="50" relative="1" as="geometry">
            <mxPoint x="69.41" y="400" as="sourcePoint" />
            <mxPoint x="90.6" y="400" as="targetPoint" />
          </mxGeometry>
        </mxCell>
        <mxCell id="KWG5rS-E0V6-jDx0Ycgz-33" value="4" style="text;html=1;align=center;verticalAlign=middle;resizable=0;points=[];autosize=1;strokeColor=none;fillColor=none;fontSize=17;" vertex="1" parent="1">
          <mxGeometry x="40" y="386" width="30" height="30" as="geometry" />
        </mxCell>
        <mxCell id="KWG5rS-E0V6-jDx0Ycgz-34" value="" style="endArrow=none;html=1;rounded=0;" edge="1" parent="1">
          <mxGeometry width="50" height="50" relative="1" as="geometry">
            <mxPoint x="69.41" y="360" as="sourcePoint" />
            <mxPoint x="90.6" y="360" as="targetPoint" />
          </mxGeometry>
        </mxCell>
        <mxCell id="KWG5rS-E0V6-jDx0Ycgz-35" value="5" style="text;html=1;align=center;verticalAlign=middle;resizable=0;points=[];autosize=1;strokeColor=none;fillColor=none;fontSize=17;" vertex="1" parent="1">
          <mxGeometry x="40" y="346" width="30" height="30" as="geometry" />
        </mxCell>
        <mxCell id="KWG5rS-E0V6-jDx0Ycgz-36" value="" style="endArrow=none;html=1;rounded=0;" edge="1" parent="1">
          <mxGeometry width="50" height="50" relative="1" as="geometry">
            <mxPoint x="69.41" y="320" as="sourcePoint" />
            <mxPoint x="90.6" y="320" as="targetPoint" />
          </mxGeometry>
        </mxCell>
        <mxCell id="KWG5rS-E0V6-jDx0Ycgz-37" value="6" style="text;html=1;align=center;verticalAlign=middle;resizable=0;points=[];autosize=1;strokeColor=none;fillColor=none;fontSize=17;" vertex="1" parent="1">
          <mxGeometry x="40" y="306" width="30" height="30" as="geometry" />
        </mxCell>
        <mxCell id="KWG5rS-E0V6-jDx0Ycgz-38" value="" style="endArrow=none;html=1;rounded=0;" edge="1" parent="1">
          <mxGeometry width="50" height="50" relative="1" as="geometry">
            <mxPoint x="69.41" y="280" as="sourcePoint" />
            <mxPoint x="90.6" y="280" as="targetPoint" />
          </mxGeometry>
        </mxCell>
        <mxCell id="KWG5rS-E0V6-jDx0Ycgz-39" value="7" style="text;html=1;align=center;verticalAlign=middle;resizable=0;points=[];autosize=1;strokeColor=none;fillColor=none;fontSize=17;" vertex="1" parent="1">
          <mxGeometry x="40" y="266" width="30" height="30" as="geometry" />
        </mxCell>
        <mxCell id="KWG5rS-E0V6-jDx0Ycgz-40" value="" style="endArrow=none;html=1;rounded=0;" edge="1" parent="1">
          <mxGeometry width="50" height="50" relative="1" as="geometry">
            <mxPoint x="69.41" y="240" as="sourcePoint" />
            <mxPoint x="90.6" y="240" as="targetPoint" />
          </mxGeometry>
        </mxCell>
        <mxCell id="KWG5rS-E0V6-jDx0Ycgz-41" value="8" style="text;html=1;align=center;verticalAlign=middle;resizable=0;points=[];autosize=1;strokeColor=none;fillColor=none;fontSize=17;" vertex="1" parent="1">
          <mxGeometry x="40" y="226" width="30" height="30" as="geometry" />
        </mxCell>
        <mxCell id="KWG5rS-E0V6-jDx0Ycgz-42" value="" style="shape=waypoint;sketch=0;size=6;pointerEvents=1;points=[];fillColor=none;resizable=0;rotatable=0;perimeter=centerPerimeter;snapToPoint=1;strokeWidth=0.25;" vertex="1" parent="1">
          <mxGeometry x="230" y="350" width="20" height="20" as="geometry" />
        </mxCell>
        <mxCell id="KWG5rS-E0V6-jDx0Ycgz-43" value="" style="shape=waypoint;sketch=0;size=6;pointerEvents=1;points=[];fillColor=none;resizable=0;rotatable=0;perimeter=centerPerimeter;snapToPoint=1;strokeWidth=0.25;" vertex="1" parent="1">
          <mxGeometry x="270" y="430" width="20" height="20" as="geometry" />
        </mxCell>
        <mxCell id="KWG5rS-E0V6-jDx0Ycgz-44" value="" style="shape=waypoint;sketch=0;size=6;pointerEvents=1;points=[];fillColor=none;resizable=0;rotatable=0;perimeter=centerPerimeter;snapToPoint=1;strokeWidth=0.25;" vertex="1" parent="1">
          <mxGeometry x="390" y="430" width="20" height="20" as="geometry" />
        </mxCell>
        <mxCell id="KWG5rS-E0V6-jDx0Ycgz-45" value="" style="shape=waypoint;sketch=0;size=6;pointerEvents=1;points=[];fillColor=none;resizable=0;rotatable=0;perimeter=centerPerimeter;snapToPoint=1;strokeWidth=0.25;" vertex="1" parent="1">
          <mxGeometry x="310" y="470" width="20" height="20" as="geometry" />
        </mxCell>
        <mxCell id="KWG5rS-E0V6-jDx0Ycgz-46" value="" style="shape=waypoint;sketch=0;size=6;pointerEvents=1;points=[];fillColor=none;resizable=0;rotatable=0;perimeter=centerPerimeter;snapToPoint=1;strokeWidth=0.25;" vertex="1" parent="1">
          <mxGeometry x="189.71" y="230" width="20" height="20" as="geometry" />
        </mxCell>
        <mxCell id="KWG5rS-E0V6-jDx0Ycgz-48" value="" style="shape=waypoint;sketch=0;size=6;pointerEvents=1;points=[];fillColor=none;resizable=0;rotatable=0;perimeter=centerPerimeter;snapToPoint=1;strokeWidth=0.25;" vertex="1" parent="1">
          <mxGeometry x="150.00000000000006" y="350" width="20" height="20" as="geometry" />
        </mxCell>
        <mxCell id="KWG5rS-E0V6-jDx0Ycgz-50" value="x1" style="text;html=1;align=center;verticalAlign=middle;resizable=0;points=[];autosize=1;strokeColor=none;fillColor=none;" vertex="1" parent="1">
          <mxGeometry x="193" y="465" width="40" height="30" as="geometry" />
        </mxCell>
        <mxCell id="KWG5rS-E0V6-jDx0Ycgz-51" value="x2" style="text;html=1;align=center;verticalAlign=middle;resizable=0;points=[];autosize=1;strokeColor=none;fillColor=none;" vertex="1" parent="1">
          <mxGeometry x="235" y="344" width="40" height="30" as="geometry" />
        </mxCell>
        <mxCell id="KWG5rS-E0V6-jDx0Ycgz-52" value="x3" style="text;html=1;align=center;verticalAlign=middle;resizable=0;points=[];autosize=1;strokeColor=none;fillColor=none;" vertex="1" parent="1">
          <mxGeometry x="274" y="424" width="40" height="30" as="geometry" />
        </mxCell>
        <mxCell id="KWG5rS-E0V6-jDx0Ycgz-53" value="x4" style="text;html=1;align=center;verticalAlign=middle;resizable=0;points=[];autosize=1;strokeColor=none;fillColor=none;" vertex="1" parent="1">
          <mxGeometry x="395" y="424" width="40" height="30" as="geometry" />
        </mxCell>
        <mxCell id="KWG5rS-E0V6-jDx0Ycgz-55" value="x5" style="text;html=1;align=center;verticalAlign=middle;resizable=0;points=[];autosize=1;strokeColor=none;fillColor=none;" vertex="1" parent="1">
          <mxGeometry x="315" y="464" width="40" height="30" as="geometry" />
        </mxCell>
        <mxCell id="KWG5rS-E0V6-jDx0Ycgz-56" value="x6" style="text;html=1;align=center;verticalAlign=middle;resizable=0;points=[];autosize=1;strokeColor=none;fillColor=none;" vertex="1" parent="1">
          <mxGeometry x="195" y="224" width="40" height="30" as="geometry" />
        </mxCell>
        <mxCell id="KWG5rS-E0V6-jDx0Ycgz-57" value="x7, x9" style="text;html=1;align=center;verticalAlign=middle;resizable=0;points=[];autosize=1;strokeColor=none;fillColor=none;" vertex="1" parent="1">
          <mxGeometry x="315" y="385" width="60" height="30" as="geometry" />
        </mxCell>
        <mxCell id="KWG5rS-E0V6-jDx0Ycgz-58" value="x8, x10" style="text;html=1;align=center;verticalAlign=middle;resizable=0;points=[];autosize=1;strokeColor=none;fillColor=none;" vertex="1" parent="1">
          <mxGeometry x="157.71" y="345" width="60" height="30" as="geometry" />
        </mxCell>
        <mxCell id="KWG5rS-E0V6-jDx0Ycgz-62" value="" style="endArrow=none;html=1;rounded=0;entryX=0.033;entryY=0.553;entryDx=0;entryDy=0;entryPerimeter=0;exitX=-0.047;exitY=0.527;exitDx=0;exitDy=0;exitPerimeter=0;" edge="1" parent="1" source="KWG5rS-E0V6-jDx0Ycgz-47" target="KWG5rS-E0V6-jDx0Ycgz-42">
          <mxGeometry width="50" height="50" relative="1" as="geometry">
            <mxPoint x="250" y="370" as="sourcePoint" />
            <mxPoint x="210" y="250" as="targetPoint" />
          </mxGeometry>
        </mxCell>
        <mxCell id="KWG5rS-E0V6-jDx0Ycgz-63" value="" style="endArrow=none;html=1;rounded=0;entryX=-0.073;entryY=0.633;entryDx=0;entryDy=0;entryPerimeter=0;exitX=0.113;exitY=0.713;exitDx=0;exitDy=0;exitPerimeter=0;" edge="1" parent="1" source="KWG5rS-E0V6-jDx0Ycgz-47" target="KWG5rS-E0V6-jDx0Ycgz-44">
          <mxGeometry width="50" height="50" relative="1" as="geometry">
            <mxPoint x="330" y="410" as="sourcePoint" />
            <mxPoint x="250" y="370" as="targetPoint" />
          </mxGeometry>
        </mxCell>
        <mxCell id="KWG5rS-E0V6-jDx0Ycgz-61" value="" style="endArrow=none;html=1;rounded=0;entryX=0.021;entryY=0.633;entryDx=0;entryDy=0;entryPerimeter=0;exitX=0.22;exitY=0.393;exitDx=0;exitDy=0;exitPerimeter=0;" edge="1" parent="1" source="KWG5rS-E0V6-jDx0Ycgz-42" target="KWG5rS-E0V6-jDx0Ycgz-46">
          <mxGeometry width="50" height="50" relative="1" as="geometry">
            <mxPoint x="220" y="430" as="sourcePoint" />
            <mxPoint x="150" y="280" as="targetPoint" />
          </mxGeometry>
        </mxCell>
        <mxCell id="KWG5rS-E0V6-jDx0Ycgz-65" value="" style="shape=waypoint;sketch=0;size=6;pointerEvents=1;points=[];fillColor=none;resizable=0;rotatable=0;perimeter=centerPerimeter;snapToPoint=1;strokeWidth=0.25;" vertex="1" parent="1">
          <mxGeometry x="390.00000000000006" y="230" width="20" height="20" as="geometry" />
        </mxCell>
        <mxCell id="KWG5rS-E0V6-jDx0Ycgz-66" value="(f1, max; f2, max)" style="text;html=1;align=center;verticalAlign=middle;resizable=0;points=[];autosize=1;strokeColor=none;fillColor=none;" vertex="1" parent="1">
          <mxGeometry x="395" y="225" width="120" height="30" as="geometry" />
        </mxCell>
        <mxCell id="KWG5rS-E0V6-jDx0Ycgz-67" value="" style="endArrow=none;dashed=1;html=1;rounded=0;entryX=0.237;entryY=0.506;entryDx=0;entryDy=0;entryPerimeter=0;exitX=0.148;exitY=0.417;exitDx=0;exitDy=0;exitPerimeter=0;" edge="1" parent="1" source="KWG5rS-E0V6-jDx0Ycgz-47" target="KWG5rS-E0V6-jDx0Ycgz-65">
          <mxGeometry width="50" height="50" relative="1" as="geometry">
            <mxPoint x="260" y="390" as="sourcePoint" />
            <mxPoint x="310" y="340" as="targetPoint" />
          </mxGeometry>
        </mxCell>
        <mxCell id="KWG5rS-E0V6-jDx0Ycgz-47" value="" style="shape=waypoint;sketch=0;size=6;pointerEvents=1;points=[];fillColor=none;resizable=0;rotatable=0;perimeter=centerPerimeter;snapToPoint=1;strokeWidth=0.25;strokeColor=#FF0000;" vertex="1" parent="1">
          <mxGeometry x="310" y="390" width="20" height="20" as="geometry" />
        </mxCell>
      </root>
    </mxGraphModel>
  </diagram>
</mxfile>
